<?xml version="1.0" encoding="utf-8"?>
<!-- Generator: Adobe Illustrator 16.0.5, SVG Export Plug-In . SVG Version: 6.00 Build 0)  -->
<!DOCTYPE svg PUBLIC "-//W3C//DTD SVG 1.1//EN" "http://www.w3.org/Graphics/SVG/1.1/DTD/svg11.dtd">
<svg version="1.1" id="Layer_1" xmlns="http://www.w3.org/2000/svg" xmlns:xlink="http://www.w3.org/1999/xlink" x="0px" y="0px"
	 width="841.889px" height="1190.551px" viewBox="0 0 841.889 1190.551" enable-background="new 0 0 841.889 1190.551"
	 xml:space="preserve">
<g>
	<g>
		<path fill="#FFFFFF" d="M520.275,174.33c-115.25,0-209.736,90.561-216.062,204.257c-111.223,8.893-199.01,102.241-199.01,215.71
			c0,9.263,7.51,16.771,16.771,16.771h399.28c9.261,0,16.771-7.508,16.771-16.771c0-113.877-88.413-207.488-200.2-215.805
			c6.324-95.144,85.734-170.621,182.45-170.621c100.834,0,182.869,82.035,182.869,182.869v600.881
			c0,9.263,7.51,16.771,16.771,16.771s16.771-7.508,16.771-16.771V390.742C736.686,271.412,639.604,174.33,520.275,174.33z
			 M503.719,577.526h-364.21c8.497-93.001,86.928-166.099,182.105-166.099C416.793,411.427,495.222,484.524,503.719,577.526z"/>
	</g>
</g>
<g>
	<g>
		<path fill="#FFFFFF" d="M163.073,642.115c-9.261,0-16.771,7.508-16.771,16.771v131.138c0,9.262,7.51,16.771,16.771,16.771
			s16.771-7.509,16.771-16.771V658.885C179.845,649.625,172.337,642.115,163.073,642.115z"/>
	</g>
</g>
<g>
	<g>
		<path fill="#FFFFFF" d="M163.073,849.585c-9.261,0-16.771,7.508-16.771,16.771v131.138c0,9.263,7.51,16.771,16.771,16.771
			s16.771-7.508,16.771-16.771V866.355C179.845,857.093,172.337,849.585,163.073,849.585z"/>
	</g>
</g>
<g>
	<g>
		<path fill="#FFFFFF" d="M276.597,671.474c-9.261,0-16.771,7.508-16.771,16.771V835.04c0,9.262,7.51,16.771,16.771,16.771
			s16.771-7.509,16.771-16.771V688.245C293.367,678.982,285.858,671.474,276.597,671.474z"/>
	</g>
</g>
<g>
	<g>
		<path fill="#FFFFFF" d="M276.597,898.516c-9.261,0-16.771,7.508-16.771,16.771v45.019c0,9.262,7.51,16.77,16.771,16.77
			s16.771-7.508,16.771-16.77v-45.019C293.367,906.024,285.858,898.516,276.597,898.516z"/>
	</g>
</g>
<g>
	<g>
		<path fill="#FFFFFF" d="M370.544,671.474c-9.261,0-16.77,7.508-16.77,16.771v15.657c0,9.263,7.509,16.771,16.77,16.771
			c9.262,0,16.771-7.508,16.771-16.771v-15.657C387.315,678.982,379.807,671.474,370.544,671.474z"/>
	</g>
</g>
<g>
	<g>
		<path fill="#FFFFFF" d="M370.544,752.7c-9.261,0-16.77,7.509-16.77,16.771v83.185c0,9.263,7.509,16.771,16.77,16.771
			c9.262,0,16.771-7.508,16.771-16.771V769.47C387.315,760.209,379.807,752.7,370.544,752.7z"/>
	</g>
</g>
<g>
	<g>
		<path fill="#FFFFFF" d="M464.494,655.815c-9.261,0-16.771,7.509-16.771,16.771v50.889c0,9.263,7.51,16.771,16.771,16.771
			s16.771-7.508,16.771-16.771v-50.889C481.265,663.324,473.755,655.815,464.494,655.815z"/>
	</g>
</g>
<g>
	<g>
		<path fill="#FFFFFF" d="M464.494,786.953c-9.261,0-16.771,7.508-16.771,16.771V999.45c0,9.262,7.51,16.771,16.771,16.771
			s16.771-7.509,16.771-16.771V803.723C481.265,794.461,473.755,786.953,464.494,786.953z"/>
	</g>
</g>
</svg>
